<svg xmlns="http://www.w3.org/2000/svg" viewBox="0 0 1230 1394" font-family="Segoe UI, Arial, sans-serif">
<rect width="1230" height="1394" fill="#ffffff"/>
<text x="615" y="40" text-anchor="middle" font-size="22" font-weight="700" fill="#1f2933">Поток сообщений между агентами (PartnerAIBot)</text>
<text x="615" y="62" text-anchor="middle" font-size="13" fill="#52606d">Перформативы — по мотивам FIPA ACL; тендер — Contract Net Protocol</text>
<defs><marker id="ar" markerWidth="10" markerHeight="10" refX="8" refY="3" orient="auto"><path d="M0,0 L9,3 L0,6 Z" fill="#1f2933"/></marker><marker id="al" markerWidth="10" markerHeight="10" refX="1" refY="3" orient="auto"><path d="M9,0 L0,3 L9,6 Z" fill="#1f2933"/></marker></defs>
<rect x="32" y="210" width="291" height="140" rx="6" fill="#d98a3d" fill-opacity="0.05" stroke="#d98a3d" stroke-opacity="0.6" stroke-dasharray="4 3"/>
<path d="M32,210 h54 l0,16 l-10,8 h-44 Z" fill="#d98a3d"/>
<text x="40" y="226" font-size="12" font-weight="700" fill="#ffffff">opt</text>
<text x="94" y="224" font-size="11.5" fill="#7a5524">mixed-initiative: если не хватает поля</text>
<rect x="382" y="410" width="291" height="186" rx="6" fill="#d98a3d" fill-opacity="0.05" stroke="#d98a3d" stroke-opacity="0.6" stroke-dasharray="4 3"/>
<path d="M382,410 h54 l0,16 l-10,8 h-44 Z" fill="#d98a3d"/>
<text x="390" y="426" font-size="12" font-weight="700" fill="#ffffff">loop</text>
<text x="444" y="424" font-size="11.5" fill="#7a5524">Contract Net — по каждой паре GEO×канал</text>
<rect x="382" y="656" width="466" height="140" rx="6" fill="#d98a3d" fill-opacity="0.05" stroke="#d98a3d" stroke-opacity="0.6" stroke-dasharray="4 3"/>
<path d="M382,656 h54 l0,16 l-10,8 h-44 Z" fill="#d98a3d"/>
<text x="390" y="672" font-size="12" font-weight="700" fill="#ffffff">opt</text>
<text x="444" y="670" font-size="11.5" fill="#7a5524">дедлайн пропущен</text>
<rect x="557" y="902" width="466" height="258" rx="6" fill="#d98a3d" fill-opacity="0.05" stroke="#d98a3d" stroke-opacity="0.6" stroke-dasharray="4 3"/>
<path d="M557,902 h54 l0,16 l-10,8 h-44 Z" fill="#d98a3d"/>
<text x="565" y="918" font-size="12" font-weight="700" fill="#ffffff">alt</text>
<text x="619" y="916" font-size="11.5" fill="#7a5524">результат проверки</text>
<line x1="557" y1="994" x2="1023" y2="994" stroke="#d98a3d" stroke-dasharray="6 4" stroke-opacity="0.7"/>
<text x="563" y="990" font-size="11" font-weight="700" fill="#7a5524">[аномалия &gt; порога]</text>
<line x1="90" y1="124" x2="90" y2="1364" stroke="#8a97a3" stroke-dasharray="3 4"/>
<rect x="24" y="78" width="132" height="40" rx="8" fill="#6b4fa1"/>
<text x="90" y="100" text-anchor="middle" font-size="14" font-weight="700" fill="#ffffff">Аналитик</text>
<text x="90" y="113" text-anchor="middle" font-size="10" fill="#dfe7ee">человек</text>
<line x1="265" y1="124" x2="265" y2="1364" stroke="#8a97a3" stroke-dasharray="3 4"/>
<rect x="199" y="78" width="132" height="40" rx="8" fill="#2c6e9b"/>
<text x="265" y="100" text-anchor="middle" font-size="14" font-weight="700" fill="#ffffff">Секретарь</text>
<text x="265" y="113" text-anchor="middle" font-size="10" fill="#dfe7ee">агент</text>
<line x1="440" y1="124" x2="440" y2="1364" stroke="#8a97a3" stroke-dasharray="3 4"/>
<rect x="374" y="78" width="132" height="40" rx="8" fill="#2c6e9b"/>
<text x="440" y="100" text-anchor="middle" font-size="14" font-weight="700" fill="#ffffff">Координатор</text>
<text x="440" y="113" text-anchor="middle" font-size="10" fill="#dfe7ee">агент</text>
<line x1="615" y1="124" x2="615" y2="1364" stroke="#8a97a3" stroke-dasharray="3 4"/>
<rect x="549" y="78" width="132" height="40" rx="8" fill="#2c6e9b"/>
<text x="615" y="100" text-anchor="middle" font-size="14" font-weight="700" fill="#ffffff">Сборщик</text>
<text x="615" y="113" text-anchor="middle" font-size="10" fill="#dfe7ee">агент</text>
<line x1="790" y1="124" x2="790" y2="1364" stroke="#8a97a3" stroke-dasharray="3 4"/>
<rect x="724" y="78" width="132" height="40" rx="8" fill="#6b4fa1"/>
<text x="790" y="100" text-anchor="middle" font-size="14" font-weight="700" fill="#ffffff">Менеджер</text>
<text x="790" y="113" text-anchor="middle" font-size="10" fill="#dfe7ee">человек</text>
<line x1="965" y1="124" x2="965" y2="1364" stroke="#8a97a3" stroke-dasharray="3 4"/>
<rect x="899" y="78" width="132" height="40" rx="8" fill="#2c6e9b"/>
<text x="965" y="100" text-anchor="middle" font-size="14" font-weight="700" fill="#ffffff">Валидатор</text>
<text x="965" y="113" text-anchor="middle" font-size="10" fill="#dfe7ee">агент</text>
<line x1="1140" y1="124" x2="1140" y2="1364" stroke="#8a97a3" stroke-dasharray="3 4"/>
<rect x="1074" y="78" width="132" height="40" rx="8" fill="#2c6e9b"/>
<text x="1140" y="100" text-anchor="middle" font-size="14" font-weight="700" fill="#ffffff">Отчётник</text>
<text x="1140" y="113" text-anchor="middle" font-size="10" fill="#dfe7ee">агент</text>
<line x1="90" y1="164" x2="265" y2="164" stroke="#1f2933" stroke-width="1.6" marker-end="url(#ar)" />
<text x="177" y="158" text-anchor="middle" font-size="11.5" fill="#1f2933">задача на сбор (текст на ЕЯ)</text>
<line x1="265" y1="252" x2="90" y2="252" stroke="#1f2933" stroke-width="1.6" marker-end="url(#al)" />
<text x="177" y="246" text-anchor="middle" font-size="11.5" fill="#1f2933">уточнить месяц / GEO / дедлайн</text>
<line x1="90" y1="298" x2="265" y2="298" stroke="#1f2933" stroke-width="1.6" marker-end="url(#ar)" stroke-dasharray="6 4"/>
<text x="177" y="292" text-anchor="middle" font-size="11.5" fill="#1f2933">недостающее поле</text>
<line x1="265" y1="364" x2="440" y2="364" stroke="#1f2933" stroke-width="1.6" marker-end="url(#ar)" />
<text x="352" y="358" text-anchor="middle" font-size="11.5" fill="#1f2933">REQUEST (task: month, GEO, channels, deadline)</text>
<line x1="440" y1="452" x2="615" y2="452" stroke="#1f2933" stroke-width="1.6" marker-end="url(#ar)" />
<text x="527" y="446" text-anchor="middle" font-size="11.5" fill="#1f2933">CFP (объявление подзадачи)</text>
<line x1="615" y1="498" x2="440" y2="498" stroke="#1f2933" stroke-width="1.6" marker-end="url(#al)" stroke-dasharray="6 4"/>
<text x="527" y="492" text-anchor="middle" font-size="11.5" fill="#1f2933">PROPOSE (ставка = надёжность − загрузка)</text>
<line x1="440" y1="544" x2="615" y2="544" stroke="#1f2933" stroke-width="1.6" marker-end="url(#ar)" />
<text x="527" y="538" text-anchor="middle" font-size="11.5" fill="#1f2933">ACCEPT_PROPOSAL / REJECT_PROPOSAL</text>
<line x1="615" y1="610" x2="790" y2="610" stroke="#1f2933" stroke-width="1.6" marker-end="url(#ar)" />
<text x="702" y="604" text-anchor="middle" font-size="11.5" fill="#1f2933">запрос бюджетов</text>
<line x1="615" y1="698" x2="790" y2="698" stroke="#1f2933" stroke-width="1.6" marker-end="url(#ar)" />
<text x="702" y="692" text-anchor="middle" font-size="11.5" fill="#1f2933">напоминание</text>
<line x1="440" y1="744" x2="615" y2="744" stroke="#1f2933" stroke-width="1.6" marker-end="url(#ar)" />
<text x="527" y="738" text-anchor="middle" font-size="11.5" fill="#1f2933">ACCEPT_PROPOSAL (переназначить на резерв)</text>
<line x1="790" y1="810" x2="615" y2="810" stroke="#1f2933" stroke-width="1.6" marker-end="url(#al)" stroke-dasharray="6 4"/>
<text x="702" y="804" text-anchor="middle" font-size="11.5" fill="#1f2933">бюджеты (список партнёр–сумма)</text>
<line x1="615" y1="856" x2="965" y2="856" stroke="#1f2933" stroke-width="1.6" marker-end="url(#ar)" />
<text x="790" y="850" text-anchor="middle" font-size="11.5" fill="#1f2933">REQUEST (проверить vs прошлый месяц)</text>
<line x1="965" y1="944" x2="615" y2="944" stroke="#1f2933" stroke-width="1.6" marker-end="url(#al)" stroke-dasharray="6 4"/>
<text x="790" y="938" text-anchor="middle" font-size="11.5" fill="#1f2933">INFORM (норма)</text>
<line x1="965" y1="1016" x2="615" y2="1016" stroke="#1f2933" stroke-width="1.6" marker-end="url(#al)" stroke-dasharray="6 4"/>
<text x="790" y="1010" text-anchor="middle" font-size="11.5" fill="#1f2933">CHALLENGE (отклонение)</text>
<line x1="615" y1="1062" x2="790" y2="1062" stroke="#1f2933" stroke-width="1.6" marker-end="url(#ar)" />
<text x="702" y="1056" text-anchor="middle" font-size="11.5" fill="#1f2933">подтвердите сумму?</text>
<line x1="790" y1="1108" x2="615" y2="1108" stroke="#1f2933" stroke-width="1.6" marker-end="url(#al)" stroke-dasharray="6 4"/>
<text x="702" y="1102" text-anchor="middle" font-size="11.5" fill="#1f2933">«да» / исправленный список</text>
<line x1="615" y1="1174" x2="440" y2="1174" stroke="#1f2933" stroke-width="1.6" marker-end="url(#al)" stroke-dasharray="6 4"/>
<text x="527" y="1168" text-anchor="middle" font-size="11.5" fill="#1f2933">REPORT (подзадача закрыта)</text>
<line x1="440" y1="1220" x2="1140" y2="1220" stroke="#1f2933" stroke-width="1.6" marker-end="url(#ar)" />
<text x="790" y="1214" text-anchor="middle" font-size="11.5" fill="#1f2933">REQUEST (все собрано → агрегировать)</text>
<line x1="1140" y1="1266" x2="90" y2="1266" stroke="#1f2933" stroke-width="1.6" marker-end="url(#al)" stroke-dasharray="6 4"/>
<text x="615" y="1260" text-anchor="middle" font-size="11.5" fill="#1f2933">отчёт: суммы по каналам / GEO, партнёры по менеджерам</text>
<line x1="1140" y1="1312" x2="440" y2="1312" stroke="#1f2933" stroke-width="1.6" marker-end="url(#al)" stroke-dasharray="6 4"/>
<text x="790" y="1306" text-anchor="middle" font-size="11.5" fill="#1f2933">CONFIRM</text>
</svg>